<?xml version="1.0" standalone="no"?><!DOCTYPE svg PUBLIC "-//W3C//DTD SVG 1.1//EN" "http://www.w3.org/Graphics/SVG/1.1/DTD/svg11.dtd"><svg t="1620656915908" class="icon" viewBox="0 0 1024 1024" version="1.1" xmlns="http://www.w3.org/2000/svg" p-id="2649" xmlns:xlink="http://www.w3.org/1999/xlink" width="128" height="128"><defs><style type="text/css"></style></defs><path d="M757.333333 42.666667A160 160 0 0 1 917.333333 202.666667v618.666666a160 160 0 0 1-160 160h-490.666666A160 160 0 0 1 106.666667 821.333333v-618.666666A160 160 0 0 1 266.666667 42.666667z m0 64h-170.666666v300.522666a53.333333 53.333333 0 0 1-49.834667 53.226667l-3.498667 0.106667a53.333333 53.333333 0 0 1-37.696-15.594667l-69.077333-69.013333-68.821333 68.906666a53.333333 53.333333 0 0 1-72.64 2.645334l-2.794667-2.602667a53.333333 53.333333 0 0 1-15.637333-37.738667V106.666667A96 96 0 0 0 170.666667 202.666667v618.666666a96 96 0 0 0 96 96h490.666666a96 96 0 0 0 96-96v-618.666666A96 96 0 0 0 757.333333 106.666667z m-234.666666 0h-192v274.688l59.626666-59.584 3.541334-3.050667a53.333333 53.333333 0 0 1 70.421333 4.394667L522.666667 381.44V106.666667z" p-id="2650"></path></svg>
