<?xml version="1.0" standalone="no"?><!DOCTYPE svg PUBLIC "-//W3C//DTD SVG 1.1//EN" "http://www.w3.org/Graphics/SVG/1.1/DTD/svg11.dtd"><svg t="1620656859586" class="icon" viewBox="0 0 1084 1024" version="1.1" xmlns="http://www.w3.org/2000/svg" p-id="1672" width="135.5" height="128" xmlns:xlink="http://www.w3.org/1999/xlink"><defs><style type="text/css"></style></defs><path d="M560.248471 439.536941H269.522824c-20.118588 0-36.352 16.233412-36.352 36.352s16.263529 36.352 36.352 36.352h290.725647c20.118588 0 36.352-16.263529 36.352-36.352 0-20.118588-16.263529-36.352-36.352-36.352z m145.287529-218.021647H269.522824c-20.118588 0-36.352 16.263529-36.352 36.352 0 20.118588 16.263529 36.382118 36.352 36.382118h436.013176c20.118588 0 36.352-16.263529 36.352-36.352 0-20.118588-16.263529-36.382118-36.352-36.382118zM850.944 3.523765H160.587294A145.317647 145.317647 0 0 0 15.299765 148.811294v726.738824a145.317647 145.317647 0 0 0 145.287529 145.287529h254.34353V948.103529H196.818824a109.025882 109.025882 0 0 1-109.025883-109.025882V185.133176c0-60.235294 48.790588-109.025882 109.025883-109.025882h617.773176c60.235294 0 109.056 48.790588 109.056 109.025882v145.317648h72.583529V148.781176A145.317647 145.317647 0 0 0 850.944 3.523765zM414.930824 657.528471H269.552941c-20.118588 0-36.352 16.263529-36.352 36.352 0 20.118588 16.263529 36.352 36.352 36.352h145.28753a36.352 36.352 0 1 0 0.12047-72.704z" p-id="1673"></path><path d="M553.652706 1019.060706c-24.365176 0-47.405176-7.408941-64.451765-21.293177-18.853647-15.299765-29.424941-37.406118-29.906823-62.464-0.813176-43.429647 35.177412-152.606118 42.465882-174.019764l2.349176-7.04753 5.059765-5.421176c29.876706-32.346353 292.713412-316.837647 315.181177-337.980235 29.997176-28.129882 74.601412-41.411765 108.483764-32.225883 17.046588 4.577882 43.279059 18.582588 65.054118 34.816 21.865412 16.233412 50.477176 42.706824 63.066353 76.920471 9.758118 26.593882 10.24 56.832 1.505882 87.552a167.454118 167.454118 0 0 1-16.112941 38.550588l-1.746823 2.951529-2.379295 2.590118C970.932706 699.331765 737.069176 952.470588 720.112941 966.927059c-7.890824 6.836706-22.949647 16.353882-69.421176 30.84047-25.057882 7.770353-54.332235 15.299765-74.571294 19.064471-7.529412 1.505882-15.058824 2.228706-22.467765 2.228706z m11.866353-228.472471c-16.112941 48.700235-36.803765 121.163294-36.442353 143.179294 0.090353 5.632 1.987765 7.890824 4.096 9.517177 6.113882 4.939294 18.462118 6.927059 29.997176 4.818823 38.369882-7.288471 99.297882-25.991529 111.525647-34.334117 17.889882-16.956235 195.312941-208.233412 313.193412-335.992471 4.336941-8.613647 16.926118-37.315765 7.408941-63.548235-12.016941-32.707765-65.897412-64.240941-80.715294-68.367059-7.168-1.867294-27.407059 1.656471-42.465882 15.781647-15.420235 14.607059-189.741176 202.601412-306.597647 328.944941z" p-id="1674"></path><path d="M839.890824 494.592l144.805647 134.927059-40.116706 42.706823-144.805647-134.927058z" p-id="1675"></path></svg>